<svg height="512" viewBox="0 0 64 64" width="512" xmlns="http://www.w3.org/2000/svg" xmlns:xlink="http://www.w3.org/1999/xlink"><linearGradient id="linear-gradient" gradientUnits="userSpaceOnUse" x1="34.5" x2="34.5" y1="-31.987" y2="-29.421"><stop offset="0" stop-color="#e8f0ff"/><stop offset=".99" stop-color="#b5d1ff"/></linearGradient><linearGradient id="linear-gradient-2" gradientUnits="userSpaceOnUse" x1="10.396" x2="10.396" y1="30.449" y2="119.699"><stop offset="0" stop-color="#ff5252"/><stop offset="1" stop-color="#d50000"/></linearGradient><linearGradient id="linear-gradient-3" x1="33.5" x2="33.5" xlink:href="#linear-gradient" y1="-5.429" y2="153.977"/><linearGradient id="linear-gradient-4" x1="50.538" x2="50.538" xlink:href="#linear-gradient" y1="-23.429" y2="-3.999"/><linearGradient id="linear-gradient-5" x1="27.396" x2="27.396" xlink:href="#linear-gradient-2" y1="32.518" y2="84.952"/><linearGradient id="linear-gradient-6" x1="9" x2="9" xlink:href="#linear-gradient-2" y1="16.321" y2="43.66"/><g id="PDF"><path d="m56 64h-43a1 1 0 0 1 -1-1v-62a1 1 0 0 1 1-1h32.662a1 1 0 0 1 .707.293l10.338 10.338a1 1 0 0 1 .293.707v51.662a1 1 0 0 1 -1 1z" fill="url(#linear-gradient)"/><path d="m7 32.946 4-1.767 2.792 4.285h-6.792z" fill="url(#linear-gradient-2)"/><path d="m55 64h-43a1 1 0 0 1 -1-1v-62a1 1 0 0 1 1-1h33.076l10.924 10.924v52.076a1 1 0 0 1 -1 1z" fill="url(#linear-gradient-3)"/><path d="m45.076 0v9.924a1 1 0 0 0 1 1h9.924l-4.9-5.9z" fill="url(#linear-gradient-4)"/><path d="m46.022 52.5h-37.252a1.769 1.769 0 0 1 -1.77-1.77v-16.016h39.022a1.771 1.771 0 0 1 1.77 1.77v14.246a1.77 1.77 0 0 1 -1.77 1.77z" fill="url(#linear-gradient-5)"/><path d="m11 31.179h-2.232a1.767 1.767 0 0 0 -1.768 1.767 1.767 1.767 0 0 0 1.768 1.768h2.232z" fill="url(#linear-gradient-6)"/></g></svg>